<svg id="Layer_1" data-name="Layer 1" xmlns="http://www.w3.org/2000/svg" viewBox="0 0 1445.84 700.01"><defs><style>.cls-1,.cls-2{font-size:24px;}.cls-1,.cls-2,.cls-26,.cls-27,.cls-28,.cls-34,.cls-36,.cls-40{font-family:ArialMT, Arial;}.cls-1{letter-spacing:-0.06em;}.cls-29,.cls-3{fill:#f6dde2;}.cls-10,.cls-12,.cls-13,.cls-14,.cls-15,.cls-16,.cls-17,.cls-18,.cls-19,.cls-20,.cls-21,.cls-22,.cls-23,.cls-24,.cls-30,.cls-39,.cls-4,.cls-43,.cls-44,.cls-45,.cls-5,.cls-6,.cls-8,.cls-9{fill:none;}.cls-16,.cls-17,.cls-18,.cls-29,.cls-31,.cls-4,.cls-43,.cls-5,.cls-6{stroke:#f67088;}.cls-10,.cls-12,.cls-13,.cls-14,.cls-15,.cls-16,.cls-17,.cls-18,.cls-19,.cls-20,.cls-21,.cls-22,.cls-23,.cls-24,.cls-29,.cls-30,.cls-31,.cls-37,.cls-38,.cls-39,.cls-4,.cls-43,.cls-44,.cls-45,.cls-5,.cls-6,.cls-8,.cls-9{stroke-miterlimit:10;}.cls-10,.cls-12,.cls-13,.cls-14,.cls-4,.cls-5,.cls-6,.cls-8,.cls-9{stroke-width:1.56px;}.cls-13,.cls-5,.cls-9{stroke-dasharray:9.81 5.88;}.cls-6{stroke-dasharray:4.59 2.75;}.cls-37,.cls-7{fill:#e3f5c4;}.cls-10,.cls-19,.cls-20,.cls-21,.cls-37,.cls-8,.cls-9{stroke:#98c456;}.cls-10{stroke-dasharray:7.43 4.46;}.cls-11,.cls-38{fill:#e6f0f2;}.cls-12,.cls-13,.cls-14,.cls-22,.cls-23,.cls-24,.cls-38,.cls-44{stroke:#7bcbe0;}.cls-14{stroke-dasharray:7.79 4.67;}.cls-15,.cls-30,.cls-39,.cls-45{stroke:#000;}.cls-15{stroke-width:1.5px;}.cls-16,.cls-17,.cls-18,.cls-19,.cls-20,.cls-21,.cls-22,.cls-23,.cls-24,.cls-43,.cls-44{stroke-width:2px;}.cls-17,.cls-20,.cls-23{stroke-dasharray:8.81 5.28;}.cls-18{stroke-dasharray:9.18 5.51;}.cls-21{stroke-dasharray:8.13 4.88;}.cls-24{stroke-dasharray:10.16 6.1;}.cls-25,.cls-31{fill:#f67088;}.cls-26{font-size:40px;}.cls-27,.cls-28{font-size:49.38px;}.cls-27{letter-spacing:-0.06em;}.cls-29,.cls-37,.cls-38,.cls-39{stroke-width:1.32px;}.cls-30{stroke-width:4.43px;}.cls-31{stroke-width:1.4px;}.cls-32{fill:#98c456;}.cls-33{fill:#7bcbe0;}.cls-34,.cls-36{font-size:39.6px;}.cls-34{letter-spacing:-0.04em;}.cls-35{letter-spacing:0em;}.cls-40{font-size:29.87px;}.cls-41{font-size:23.3px;}.cls-41,.cls-46{font-family:Arial-BoldMT, Arial;font-weight:700;}.cls-42{fill:#e2e2e2;}.cls-43{stroke-dasharray:11.91 7.14;}.cls-44{stroke-dasharray:6.31 3.79;}.cls-45{stroke-width:6px;}.cls-46{font-size:44px;}.cls-47{letter-spacing:-0.07em;}.cls-48{font-size:22px;font-family:Arial-ItalicMT, Arial;font-style:italic;}</style></defs><text class="cls-1" transform="translate(500.72 270.05)">A</text><text class="cls-2" transform="translate(574.93 270.05)">B</text><text class="cls-2" transform="translate(648.42 270.05)">C</text><rect class="cls-3" x="495.32" y="225.55" width="29.38" height="17.9"/><polyline class="cls-4" points="524.7 229.46 524.7 225.55 520.79 225.55"/><line class="cls-5" x1="514.91" y1="225.55" x2="502.16" y2="225.55"/><polyline class="cls-4" points="499.22 225.55 495.32 225.55 495.32 229.46"/><line class="cls-6" x1="495.32" y1="232.21" x2="495.32" y2="238.17"/><polyline class="cls-4" points="495.32 239.55 495.32 243.45 499.22 243.45"/><line class="cls-5" x1="505.1" y1="243.45" x2="517.85" y2="243.45"/><polyline class="cls-4" points="520.79 243.45 524.7 243.45 524.7 239.55"/><line class="cls-6" x1="524.7" y1="236.8" x2="524.7" y2="230.83"/><rect class="cls-7" x="569.34" y="171.74" width="29.38" height="71.72"/><polyline class="cls-8" points="598.71 175.64 598.71 171.74 594.81 171.74"/><line class="cls-9" x1="588.93" y1="171.74" x2="576.18" y2="171.74"/><polyline class="cls-8" points="573.24 171.74 569.34 171.74 569.34 175.64"/><line class="cls-10" x1="569.34" y1="180.1" x2="569.34" y2="237.32"/><polyline class="cls-8" points="569.34 239.55 569.34 243.45 573.24 243.45"/><line class="cls-9" x1="579.12" y1="243.45" x2="591.87" y2="243.45"/><polyline class="cls-8" points="594.81 243.45 598.71 243.45 598.71 239.55"/><line class="cls-10" x1="598.71" y1="235.09" x2="598.71" y2="177.87"/><rect class="cls-11" x="643.35" y="193.6" width="29.38" height="49.85"/><polyline class="cls-12" points="672.73 197.5 672.73 193.6 668.83 193.6"/><line class="cls-13" x1="662.94" y1="193.6" x2="650.2" y2="193.6"/><polyline class="cls-12" points="647.26 193.6 643.35 193.6 643.35 197.5"/><line class="cls-14" x1="643.35" y1="202.17" x2="643.35" y2="237.21"/><polyline class="cls-12" points="643.35 239.55 643.35 243.45 647.26 243.45"/><line class="cls-13" x1="653.14" y1="243.45" x2="665.89" y2="243.45"/><polyline class="cls-12" points="668.83 243.45 672.73 243.45 672.73 239.55"/><line class="cls-14" x1="672.73" y1="234.88" x2="672.73" y2="199.84"/><polyline class="cls-15" points="475.15 171.74 475.15 243.45 683.93 243.45"/><text class="cls-1" transform="translate(104.26 271.32)">A</text><text class="cls-2" transform="translate(178.47 271.32)">B</text><text class="cls-2" transform="translate(251.96 271.32)">C</text><text class="cls-1" transform="translate(502.42 464.59)">A</text><text class="cls-2" transform="translate(576.62 464.59)">B</text><text class="cls-2" transform="translate(650.12 464.59)">C</text><rect class="cls-3" x="499.8" y="364.75" width="29.38" height="74.24"/><polyline class="cls-16" points="529.18 369.75 529.18 364.75 524.18 364.75"/><line class="cls-17" x1="518.89" y1="364.75" x2="507.44" y2="364.75"/><polyline class="cls-16" points="504.8 364.75 499.8 364.75 499.8 369.75"/><line class="cls-18" x1="499.8" y1="375.26" x2="499.8" y2="431.24"/><polyline class="cls-16" points="499.8 433.99 499.8 438.99 504.8 438.99"/><line class="cls-17" x1="510.08" y1="438.99" x2="521.53" y2="438.99"/><polyline class="cls-16" points="524.18 438.99 529.18 438.99 529.18 433.99"/><line class="cls-18" x1="529.18" y1="428.49" x2="529.18" y2="372.5"/><rect class="cls-7" x="573.82" y="398.09" width="29.38" height="40.91"/><polyline class="cls-19" points="603.2 403.09 603.2 398.09 598.2 398.09"/><line class="cls-20" x1="592.91" y1="398.09" x2="581.46" y2="398.09"/><polyline class="cls-19" points="578.82 398.09 573.82 398.09 573.82 403.09"/><line class="cls-21" x1="573.82" y1="407.97" x2="573.82" y2="431.55"/><polyline class="cls-19" points="573.82 433.99 573.82 438.99 578.82 438.99"/><line class="cls-20" x1="584.1" y1="438.99" x2="595.55" y2="438.99"/><polyline class="cls-19" points="598.2 438.99 603.2 438.99 603.2 433.99"/><line class="cls-21" x1="603.2" y1="429.11" x2="603.2" y2="405.53"/><rect class="cls-11" x="647.84" y="374.1" width="29.38" height="64.89"/><polyline class="cls-22" points="677.21 379.1 677.21 374.1 672.21 374.1"/><line class="cls-23" x1="666.93" y1="374.1" x2="655.48" y2="374.1"/><polyline class="cls-22" points="652.84 374.1 647.84 374.1 647.84 379.1"/><line class="cls-24" x1="647.84" y1="385.2" x2="647.84" y2="430.94"/><polyline class="cls-22" points="647.84 433.99 647.84 438.99 652.84 438.99"/><line class="cls-23" x1="658.12" y1="438.99" x2="669.57" y2="438.99"/><polyline class="cls-22" points="672.21 438.99 677.21 438.99 677.21 433.99"/><line class="cls-24" x1="677.21" y1="427.89" x2="677.21" y2="382.15"/><polyline class="cls-15" points="479.63 369.12 479.63 438.99 688.42 438.99"/><rect class="cls-25" x="982.29" y="232.42" width="33" height="200.39"/><text class="cls-26" transform="translate(1084.16 537.71)">Gene </text><text class="cls-26" transform="translate(909.15 379.53) rotate(-90)">Expression</text><text class="cls-27" transform="translate(991.51 484.05)">A</text><text class="cls-28" transform="translate(1134.49 484.05)">B</text><text class="cls-28" transform="translate(1276.1 484.05)">C</text><rect class="cls-29" x="1028.72" y="289.75" width="33" height="143.05"/><polyline class="cls-30" points="942.24 125.3 942.24 432.8 1344.53 432.8"/><rect class="cls-31" x="1004.18" y="586.98" width="32.69" height="32.69"/><rect class="cls-32" x="1052.43" y="586.98" width="32.69" height="32.69"/><rect class="cls-33" x="1100.68" y="586.46" width="32.69" height="32.69"/><text class="cls-34" transform="translate(1155.16 618.2)">T<tspan class="cls-35" x="22.72" y="0">rue</tspan></text><text class="cls-36" transform="translate(1155.16 681.27)">Predicted</text><rect class="cls-29" x="1004.18" y="649.01" width="32.69" height="32.69"/><rect class="cls-37" x="1052.43" y="649.01" width="32.69" height="32.69"/><rect class="cls-38" x="1100.68" y="648.5" width="32.69" height="32.69"/><rect class="cls-32" x="1108.73" y="370.29" width="33" height="59.75"/><rect class="cls-37" x="1155.16" y="361.28" width="33" height="68.76"/><rect class="cls-33" x="1252.86" y="397.03" width="33" height="33"/><rect class="cls-38" x="1299.3" y="171.01" width="33" height="259.02"/><polyline class="cls-39" points="1171.67 341.81 1171.67 313.93 1125.23 313.93 1125.23 341.81"/><polygon points="1178.25 339.89 1171.67 351.29 1165.08 339.89 1178.25 339.89"/><polygon points="1118.65 339.89 1125.23 351.29 1131.81 339.89 1118.65 339.89"/><text class="cls-40" transform="translate(28.48 490.28) rotate(-90)">Accessibility</text><text class="cls-41" transform="translate(147.3 122.79)">Cell 1</text><text class="cls-41" transform="translate(148.39 340.31)">Cell 2</text><path class="cls-42" d="M287.92,226.9c-2.85-5-2.74-13.13-5.36-20.76-3.19-9.28-8.16-11.58-11.67-8-5.35,5.49-6.08,23.24-10.56,24.49-5.11,1.44-6.84-21-12.13-19.7-4.86,1.2-6.32,20.79-10.56,19.17-2.13-.82-2.93-6.22-5.83-16.5-1.26-4.48-4-24.89-9.14-23.43-6,0-7.6,38.07-10.26,44.19a6.59,6.59,0,0,1-2.45,3.27c-2.5,1.73-4.74-1.41-7.44-5.32-1.87-2.72-1.5-2.95-2.32-3.68-2-1.81-3.66.19-7.32,4.5-3.43,4-6.65,4.8-10.12-5.32-3.83-11.18-4.79-20.45-8.14-27.41-1.21-2.52-9.88-8.46-16.16,1.23-4.44,6.86-6,39.19-12.44,38.05-5-.9-10.47-.2-11.85-3.69-2.16-5.43-3-13.53-3.61-19.63-.92-9.05-.54-12.43-1.39-31.92-.48-10.87-.82-18.39-1.28-18.41s-.75,9.26-1.86,27.82c-1.32,22-2.22,29.38-3.14,35.19-1.92,12.18-2.59,13.74-3.56,14.9-1.45,1.72-2.29,2.28-4.46,2.28s-5.33-13.33-7.14-14.6S104,222.36,102,225s-2.16,6.4-4.5,7.44c-1.78.78-5.28,2.62-7.2,1.76s-5.7-2.29-7-5.74-4.17-20.71-7.17-20.71c-.46,0-3.14,4.09-3.82,4.09-2.16,0-5.26-22.92-9.54-22.92s-8.42,21.19-9.31,22.91c-1.67,3.22-2.37-3.64-5.45-3.32-.72.07-1.45,1.25-2.25,3.1L40.8,224v19.18h74.07l111.11,0h68.56V232.79A15.09,15.09,0,0,1,287.92,226.9Z"/><path class="cls-25" d="M114.89,243.3h0m19.34-.24V228c-2.16-5.42-3-13.51-3.63-19.61-.93-9-.55-12.42-1.43-31.9-.49-10.87-.84-18.38-1.3-18.4s-.74,9.26-1.83,27.84c-1.29,22-2.19,29.4-3.1,35.22-1.9,12.19-2.57,13.76-3.54,14.93-1.45,1.74-2.28,2.3-4.46,2.32s-5.34-13.28-7.15-14.53-3.71-1.24-5.7,1.39-2.15,6.42-4.49,7.48v10.54"/><path class="cls-33" d="M294.54,243.18V232.74a15.09,15.09,0,0,1-6.62-5.89c-2.85-5-2.74-13.13-5.36-20.76-3.19-9.28-8.16-11.58-11.67-8-5.35,5.49-6.08,23.24-10.56,24.49-5.11,1.44-6.84-21-12.13-19.69-4.86,1.2-6.32,20.79-10.56,19.16v21.12Z"/><path class="cls-32" d="M212.51,226.2a6.71,6.71,0,0,1-2.44,3.27c-2.51,1.72-4.75-1.41-7.44-5.32-1.88-2.72-1.51-3-2.33-3.68-2-1.82-3.66.19-7.32,4.5-3.43,4-6.64,4.8-10.12-5.32-3.83-11.18-4.79-20.45-8.13-27.41-1.22-2.52-9.89-8.46-16.16,1.23v49.76h53.94Z"/><polyline class="cls-15" points="40.46 171.74 40.46 243.23 300.98 243.23"/><path class="cls-42" d="M41.39,422c.55-3.6,1.35-9.23,2-16.39,1.14-11.71,1.08-18,2.29-19.23,1.45-1.43,3.5,5.76,4.09,7.84,2.78,9.72,2.06,17.82,4.82,23.15a6,6,0,0,0,2.53,2.84c2.59,1.51,4.91-1.22,7.7-4.63,1.94-2.36,1.57-2.56,2.41-3.2,2.1-1.58,3.79.17,7.59,3.92,3.54,3.5,6.87,4.18,10.47-4.63,4-9.73,5-17.8,8.43-23.86,1.25-2.2,4.78,13.11,11.28,21.54,4.6,6,11.64,13.64,18.34,12.65,5.22-.78,8.33.1,9.76-2.94,2.23-4.72,7-36.22,10.11-36.22s6.78,43.74,10,43.74,7.59-31.46,11.52-31.46c4.87,0,4.83,8,6.8,13.32,3.31,8.86,9.67,3.87,13.06-10,4.52-18.5,7.24-38.17,10.61-38.17,5.39,0,8.16,22.28,9.47,27.53,3,12.08,3.83,18.44,6,19.4,4.39,1.91,5.85,12.39,10.87,11,5.49-1.54,7.34-8.67,12.63-10.36,4.64-1.47,8.71,1.26,14.26-5.18,3.63-4.23,5.46-25.11,8.76-14.21,2.71,9,2.6,18.52,5.55,24.4a28.9,28.9,0,0,0,6.85,8.38c2.49-.44,4.61-.77,6.33-1,2.62-.37,12-1.41,17.62-9v29.7H41.39Z"/><path class="cls-33" d="M293.7,440.9V411.2c-5.6,7.56-15,8.6-17.62,9-1.72.25-3.84.58-6.33,1a28.9,28.9,0,0,1-6.85-8.38c-2.95-5.88-2.84-15.44-5.55-24.4-3.3-10.9-5.13,10-8.76,14.21-4.74,5.5-8.4,4.31-12.26,4.77V440.9Z"/><path class="cls-32" d="M210.79,407.18c-2.79-5.84-4.67-14.06-6-19.4s-4.08-27.53-9.47-27.53c-3.37,0-6.09,19.67-10.61,38.17-3.38,13.88-9.75,18.87-13.05,10-2-5.29-1.94-13.32-6.81-13.32-2.3,0-4.75,10.81-7,19.76v26h53Z"/><path class="cls-25" d="M133.18,419.05c-1.43,3-4.54,2.16-9.76,2.94-6.7,1-13.74-6.68-18.34-12.65-3.37-4.37-5.94-10.59-7.81-15.26V440.9h35.91Z"/><polyline class="cls-15" points="41.38 368 41.38 439.69 300.06 439.69"/><text class="cls-41" transform="translate(553.83 122.79)">Cell 1</text><text class="cls-41" transform="translate(553.96 340.61)">Cell 2</text><text class="cls-40" transform="translate(455.16 477.86) rotate(-90)">Expression</text><text class="cls-1" transform="translate(104.26 475.99)">A</text><text class="cls-2" transform="translate(178.47 475.99)">B</text><text class="cls-2" transform="translate(251.96 475.99)">C</text><path class="cls-42" d="M293.58,620.27c-.56-3.09-1.36-7.93-2.05-14.09-1.14-10.08-1.08-15.51-2.29-16.54-1.46-1.23-3.51,5-4.1,6.74-2.78,8.36-2.07,15.33-4.83,19.91a5.64,5.64,0,0,1-2.53,2.45c-2.6,1.29-4.92-1.06-7.72-4-1.94-2-1.56-2.21-2.41-2.76-2.1-1.36-3.79.14-7.59,3.37-3.56,3-6.89,3.59-10.5-4-4-8.37-5-15.31-8.44-20.52-1.25-1.89-4.78,11.27-11.29,18.52-4.61,5.14-11.66,11.74-18.37,10.88-5.23-.67-8.34.09-9.78-2.52-2.23-4.07-7-31.16-10.13-31.16s-6.79,37.63-10.05,37.63-7.6-27.07-11.53-27.07c-4.89,0-4.85,6.91-6.82,11.46-3.31,7.62-9.68,3.33-13.08-8.61-4.52-15.91-7.25-32.82-10.62-32.82-5.4,0-8.18,19.15-9.48,23.67-3,10.39-3.84,15.86-6,16.68-4.4,1.64-5.86,10.66-10.9,9.45-5.49-1.33-7.34-7.46-12.64-8.91-4.64-1.26-8.72,1.09-14.28-4.46C82.46,600,80.63,582,77.33,591.39c-2.72,7.71-2.61,15.94-5.56,21a26.33,26.33,0,0,1-6.87,7.21c-2.49-.38-4.61-.66-6.34-.88-2.62-.32-12-1.21-17.64-7.71v25.54H293.58Z"/><path class="cls-25" d="M97,607.88a15.1,15.1,0,0,1,3.41.46c5.3,1.44,7.15,7.58,12.64,8.9,5,1.21,6.5-7.8,10.9-9.44,2.21-.83,3-6.29,6-16.68.6-2.1,1.53-7.36,2.89-12.39V636h-36Z"/><path class="cls-32" d="M210.58,620.18c-3.65-.15-8.08-.65-8.9-2.14-2.23-4.06-7-31.15-10.13-31.15s-6.79,37.62-10.05,37.62-7.6-27.06-11.53-27.06c-4.89,0-4.85,6.91-6.82,11.45-1.45,3.35-3.49,4.4-5.62,3.52v23.1h53.05Z"/><path class="cls-33" d="M236.19,599.37c2.59-5.25,4.19-9.65,4.95-8.5,3.48,5.21,4.47,12.15,8.44,20.52,3.61,7.57,6.94,7,10.5,4,3.8-3.23,5.49-4.73,7.59-3.37.85.55.47.72,2.41,2.76,2.8,2.92,5.12,5.27,7.72,4a5.64,5.64,0,0,0,2.53-2.45c2.76-4.58,2.05-11.55,4.83-19.91.59-1.79,2.64-8,4.1-6.74,1.21,1,1.15,6.46,2.29,16.54.69,6.16,1.49,11,2.05,14.09v16.27H236.19Z"/><polyline class="cls-15" points="41.38 564.43 41.45 635.95 300.52 635.95"/><text class="cls-1" transform="translate(506.9 661.59)">A</text><text class="cls-2" transform="translate(581.1 661.59)">B</text><text class="cls-2" transform="translate(654.6 661.59)">C</text><rect class="cls-3" x="504.28" y="580.75" width="29.38" height="55.24"/><polyline class="cls-16" points="533.66 585.75 533.66 580.75 528.66 580.75"/><line class="cls-17" x1="523.37" y1="580.75" x2="511.92" y2="580.75"/><polyline class="cls-16" points="509.28 580.75 504.28 580.75 504.28 585.75"/><line class="cls-43" x1="504.28" y1="592.89" x2="504.28" y2="627.42"/><polyline class="cls-16" points="504.28 630.99 504.28 635.99 509.28 635.99"/><line class="cls-17" x1="514.57" y1="635.99" x2="526.02" y2="635.99"/><polyline class="cls-16" points="528.66 635.99 533.66 635.99 533.66 630.99"/><line class="cls-43" x1="533.66" y1="623.85" x2="533.66" y2="589.32"/><rect class="cls-7" x="578.3" y="595.08" width="29.38" height="40.91"/><polyline class="cls-19" points="607.68 600.08 607.68 595.08 602.68 595.08"/><line class="cls-20" x1="597.39" y1="595.08" x2="585.94" y2="595.08"/><polyline class="cls-19" points="583.3 595.08 578.3 595.08 578.3 600.08"/><line class="cls-21" x1="578.3" y1="604.96" x2="578.3" y2="628.55"/><polyline class="cls-19" points="578.3 630.99 578.3 635.99 583.3 635.99"/><line class="cls-20" x1="588.58" y1="635.99" x2="600.04" y2="635.99"/><polyline class="cls-19" points="602.68 635.99 607.68 635.99 607.68 630.99"/><line class="cls-21" x1="607.68" y1="626.11" x2="607.68" y2="602.52"/><rect class="cls-11" x="652.32" y="612.1" width="29.38" height="23.89"/><polyline class="cls-22" points="681.7 617.1 681.7 612.1 676.7 612.1"/><line class="cls-23" x1="671.41" y1="612.1" x2="659.96" y2="612.1"/><polyline class="cls-22" points="657.32 612.1 652.32 612.1 652.32 617.1"/><line class="cls-44" x1="652.32" y1="620.89" x2="652.32" y2="629.1"/><polyline class="cls-22" points="652.32 630.99 652.32 635.99 657.32 635.99"/><line class="cls-23" x1="662.6" y1="635.99" x2="674.05" y2="635.99"/><polyline class="cls-22" points="676.7 635.99 681.7 635.99 681.7 630.99"/><line class="cls-44" x1="681.7" y1="627.2" x2="681.7" y2="618.99"/><polyline class="cls-15" points="484.11 566.12 484.11 635.99 692.9 635.99"/><text class="cls-41" transform="translate(558.44 537.6)">Cell 3</text><text class="cls-41" transform="translate(149.49 543.95)">Cell 3</text><text class="cls-1" transform="translate(104.26 661.66)">A</text><text class="cls-2" transform="translate(178.47 661.66)">B</text><text class="cls-2" transform="translate(251.96 661.66)">C</text><text class="cls-2" transform="translate(157.53 692.23)">Gene</text><text class="cls-2" transform="translate(559.54 692.23)">Gene</text><line class="cls-45" x1="347.69" y1="403.97" x2="380.23" y2="403.97"/><polygon points="375.86 418.93 401.76 403.97 375.86 389.01 375.86 418.93"/><polyline class="cls-39" points="1044.74 269.58 1044.74 199.35 998.3 199.35 998.3 213.24"/><polygon points="1051.32 267.65 1044.74 279.05 1038.15 267.65 1051.32 267.65"/><polygon points="991.72 211.31 998.3 222.71 1004.88 211.31 991.72 211.31"/><polyline class="cls-39" points="1315.8 153.18 1315.8 138.3 1269.37 138.3 1269.37 381.16"/><polygon points="1322.38 151.25 1315.8 162.66 1309.22 151.25 1322.38 151.25"/><polygon points="1262.78 379.23 1269.37 390.63 1275.95 379.23 1262.78 379.23"/><text class="cls-46" transform="translate(328.32 57)"><tspan class="cls-47">T</tspan><tspan x="23.61" y="0">ask</tspan></text><text class="cls-46" transform="translate(1096.66 57.57)">Metric</text><text class="cls-48" transform="translate(1021.52 178.3)">Root mean square error</text></svg>